<svg width="448" height="307" viewBox="0 0 448 307" fill="none" xmlns="http://www.w3.org/2000/svg">
<g clip-path="url(#clip0)">
<path opacity="0.1" d="M422.56 174.219C407.558 193.291 413.386 221.154 422.919 243.468C426.111 250.939 429.721 258.843 428.375 266.855C426.728 276.653 417.983 283.817 408.802 287.613C392.065 294.535 372.036 292.885 356.657 283.319C343.367 275.052 333.849 261.607 320.332 253.717C297.711 240.511 268.918 245.498 244.354 254.594C226.976 261.03 207.977 269.399 190.709 262.674C178.559 257.941 170.16 246.423 165.584 234.213C163.374 228.319 161.771 221.938 157.552 217.266C155.043 214.488 151.77 212.516 148.416 210.854C117.796 195.672 79.1218 203.802 49.3799 186.964C29.2934 175.592 16.434 154.142 10.7403 131.774C5.0466 109.406 5.70979 85.9525 7.1554 62.9171C8.18271 46.5468 10.0259 29.0698 20.4867 16.4353C31.5528 3.06976 50.5446 -1.90013 67.7106 0.64025C84.8766 3.18063 100.436 12.2349 114.125 22.8993C131.233 36.2275 147.098 52.8243 168.103 58.2233C182.407 61.9 197.455 59.8888 212.208 59.1924C236.871 58.028 261.545 60.6173 286.072 63.4526C309.553 66.1668 333.204 69.1541 355.573 76.7919C371.403 82.197 384.094 92.0085 399.042 98.8629C408.785 103.331 419.41 104.565 428.635 110.255C439.999 117.266 450.417 129.459 447.506 143.727C444.737 157.292 430.523 164.096 422.56 174.219Z" fill="#6C63FF"/>
<path d="M292.795 58.4945C292.795 58.4945 268.68 51.3528 267.086 71.6663C265.493 91.9798 273.46 125.437 267.086 136.192C260.713 146.946 237.971 162.483 249.939 163.876C261.908 165.268 267.883 167.259 264.298 174.429C260.713 181.598 241.991 188.369 245.975 193.547C249.958 198.725 251.95 205.098 247.966 211.471C243.983 217.844 230.041 221.827 232.431 226.208C234.821 230.59 243.585 232.979 239.203 237.759C234.821 242.539 222.119 253.411 227.076 253.352" stroke="#535461" stroke-width="3" stroke-miterlimit="10"/>
<path d="M328.024 44.9609H277.167C274.314 44.9609 272.001 47.2738 272.001 50.1268V68.1704C272.001 71.0234 274.314 73.3362 277.167 73.3362H328.024C330.877 73.3362 333.19 71.0234 333.19 68.1704V50.1268C333.19 47.2738 330.877 44.9609 328.024 44.9609Z" fill="#6C63FF"/>
<path opacity="0.1" d="M328.313 68.9813H276.878V69.5134H328.313V68.9813Z" fill="black"/>
<path opacity="0.3" d="M328.313 49.3947H276.878V68.9027H328.313V49.3947Z" fill="black"/>
<path opacity="0.1" d="M288.85 66.6496C292.768 66.6496 295.945 63.4736 295.945 59.5557C295.945 55.6379 292.768 52.4619 288.85 52.4619C284.932 52.4619 281.756 55.6379 281.756 59.5557C281.756 63.4736 284.932 66.6496 288.85 66.6496Z" fill="black"/>
<path opacity="0.1" d="M316.341 66.6496C320.259 66.6496 323.436 63.4736 323.436 59.5557C323.436 55.6379 320.259 52.4619 316.341 52.4619C312.423 52.4619 309.247 55.6379 309.247 59.5557C309.247 63.4736 312.423 66.6496 316.341 66.6496Z" fill="black"/>
<path d="M307.916 73.3354H297.275V79.5441H307.916V73.3354Z" fill="#6C63FF"/>
<path d="M324.766 77.7699H280.426V113.239H324.766V77.7699Z" fill="#6C63FF"/>
<path d="M325.653 120.333H279.539V124.767H325.653V120.333Z" fill="#6C63FF"/>
<path d="M287.077 135.407V140.728V148.708V153.142V155.802H295.058V153.142V148.708V140.728V135.407V129.2H287.077V135.407Z" fill="#6C63FF"/>
<path d="M311.021 129.2V135.407V140.728V148.708V153.142V155.802H319.002V153.142V148.708V140.728V135.407V129.2H311.021Z" fill="#6C63FF"/>
<path d="M274.386 85.7507V93.9522C272.196 94.3348 270.154 95.3187 268.491 96.794C266.948 98.2228 265.748 99.982 264.981 101.94C264.003 104.454 263.42 107.104 263.253 109.795C263.001 113.315 263.166 116.853 263.743 120.334H254.875C254.506 116.098 254.583 111.835 255.107 107.615C255.526 104.128 256.486 100.726 257.953 97.5349C260.523 92.1466 264.177 89.2235 267.387 87.6357C269.562 86.5237 271.947 85.8815 274.386 85.7507Z" fill="#6C63FF"/>
<path opacity="0.3" d="M295.058 129.2H287.077V135.407H295.058V129.2Z" fill="black"/>
<path opacity="0.3" d="M295.058 140.728H287.077V148.708H295.058V140.728Z" fill="black"/>
<path opacity="0.3" d="M295.058 153.142H287.077V155.802H295.058V153.142Z" fill="black"/>
<path opacity="0.3" d="M319.002 129.2H311.02V135.407H319.002V129.2Z" fill="black"/>
<path opacity="0.3" d="M319.002 140.728H311.02V148.708H319.002V140.728Z" fill="black"/>
<path opacity="0.3" d="M319.002 153.142H311.02V155.802H319.002V153.142Z" fill="black"/>
<path opacity="0.3" d="M274.386 85.7507V93.9522C272.196 94.3348 270.154 95.3187 268.491 96.794L267.387 87.6357C269.562 86.5237 271.947 85.8815 274.386 85.7507Z" fill="black"/>
<path opacity="0.3" d="M264.981 101.94C264.003 104.454 263.42 107.104 263.253 109.795L255.107 107.615C255.526 104.128 256.486 100.726 257.953 97.5349L264.981 101.94Z" fill="black"/>
<path d="M330.805 85.7507V93.9522C332.996 94.3348 335.037 95.3187 336.701 96.794C338.244 98.2228 339.444 99.982 340.211 101.94C341.189 104.454 341.772 107.104 341.939 109.795C342.19 113.315 342.025 116.853 341.448 120.334H350.316C350.686 116.098 350.608 111.835 350.084 107.615C349.666 104.128 348.706 100.726 347.238 97.5349C344.669 92.1466 341.015 89.2235 337.804 87.6357C335.629 86.5237 333.245 85.8815 330.805 85.7507Z" fill="#6C63FF"/>
<path opacity="0.3" d="M330.805 85.7507V93.9522C332.996 94.3348 335.037 95.3187 336.701 96.794L337.804 87.6357C335.629 86.5237 333.245 85.8815 330.805 85.7507Z" fill="black"/>
<path opacity="0.3" d="M340.211 101.94C341.189 104.454 341.772 107.104 341.939 109.795L350.084 107.615C349.666 104.128 348.706 100.726 347.238 97.5349L340.211 101.94Z" fill="black"/>
<path opacity="0.1" d="M307.916 73.3354H297.275V74.0703H307.916V73.3354Z" fill="black"/>
<path opacity="0.1" d="M325.554 84.0896V98.9395C325.023 98.3669 324.729 97.6151 324.729 96.8346V86.1924C324.729 85.4125 325.023 84.6613 325.554 84.0896Z" fill="black"/>
<path opacity="0.1" d="M280.583 85.0688V96.1853C280.53 96.8882 280.239 97.5518 279.757 98.0662V83.1879C280.239 83.7023 280.53 84.3659 280.583 85.0688Z" fill="black"/>
<path opacity="0.1" d="M322.549 113.24H282.643V113.765H322.549V113.24Z" fill="black"/>
<path opacity="0.1" d="M301.265 124.767H281.756V125.175H301.265V124.767Z" fill="black"/>
<path opacity="0.1" d="M322.549 124.767H303.04V125.175H322.549V124.767Z" fill="black"/>
<path d="M286.986 18.7014H283.932V44.9609H286.986V18.7014Z" fill="#6C63FF"/>
<path d="M322.001 18.7014H318.948V44.9609H322.001V18.7014Z" fill="#6C63FF"/>
<path opacity="0.1" d="M285.357 22.3656C287.268 22.3656 288.818 20.8162 288.818 18.905C288.818 16.9938 287.268 15.4445 285.357 15.4445C283.446 15.4445 281.896 16.9938 281.896 18.905C281.896 20.8162 283.446 22.3656 285.357 22.3656Z" fill="black"/>
<path d="M285.357 22.1621C287.268 22.1621 288.818 20.6127 288.818 18.7015C288.818 16.7903 287.268 15.241 285.357 15.241C283.446 15.241 281.896 16.7903 281.896 18.7015C281.896 20.6127 283.446 22.1621 285.357 22.1621Z" fill="#6C63FF"/>
<path opacity="0.1" d="M320.576 22.3656C322.488 22.3656 324.037 20.8162 324.037 18.905C324.037 16.9938 322.488 15.4445 320.576 15.4445C318.665 15.4445 317.115 16.9938 317.115 18.905C317.115 20.8162 318.665 22.3656 320.576 22.3656Z" fill="black"/>
<path d="M320.576 22.1621C322.488 22.1621 324.037 20.6127 324.037 18.7015C324.037 16.7903 322.488 15.241 320.576 15.241C318.665 15.241 317.115 16.7903 317.115 18.7015C317.115 20.6127 318.665 22.1621 320.576 22.1621Z" fill="#6C63FF"/>
<path opacity="0.5" d="M248.564 170.842C247.203 172.206 246.892 174.078 246.408 175.813C245.027 180.77 241.775 185.342 237.244 188.699C233.924 191.159 229.474 193.883 230.26 197.553C230.448 198.43 230.945 199.248 231.076 200.132C231.641 203.96 225.789 205.977 223.524 209.326C221.836 211.822 222.287 214.913 222.789 217.755C223.403 221.234 224.145 224.945 226.999 227.506C227.77 228.197 228.688 228.797 229.225 229.63C230.429 231.497 229.382 233.945 230.477 235.86C231.936 238.413 236.533 238.524 239.2 236.802C241.867 235.08 243.1 232.25 244.282 229.596C247.477 222.424 251.405 215.228 258.044 210.005C264.411 204.997 273.672 201.112 274.764 193.823C275.232 190.698 274.046 187.273 275.858 184.519C276.715 183.218 278.146 182.254 279.116 181.01C282.004 177.306 279.854 171.948 275.625 169.317C269.239 165.346 254.118 165.281 248.564 170.842Z" fill="#DEE3F3"/>
<path d="M360.486 37.6791L332.351 46.4694L333.42 49.891L361.555 41.1007L360.486 37.6791Z" fill="#6C63FF"/>
<path d="M373.012 170.85C373.012 170.85 357.587 167.766 353.474 163.653C349.361 159.54 330.85 152.342 328.794 157.483C326.737 162.624 301.029 180.105 318.51 183.189C335.992 186.274 359.644 187.302 364.786 185.246C369.927 183.189 373.012 170.85 373.012 170.85Z" fill="#A8A8A8"/>
<path opacity="0.2" d="M318.51 181.279C335.992 184.364 359.644 185.392 364.786 183.336C368.701 181.77 371.422 174.245 372.498 170.743C372.824 170.812 373.012 170.85 373.012 170.85C373.012 170.85 369.927 183.189 364.786 185.246C359.644 187.303 335.992 186.274 318.51 183.189C313.464 182.299 312.021 180.208 312.565 177.561C312.996 179.288 314.754 180.617 318.51 181.279Z" fill="black"/>
<path d="M407.268 36.3799C406.993 35.6951 406.554 35.0879 405.991 34.611C401.853 30.8388 395.158 31.9823 390.018 29.678C388.835 29.1472 387.62 28.4109 386.335 28.6126C384.54 28.8944 382.871 30.9378 381.306 30.0312L381.418 30.3725C381.38 30.3542 381.343 30.3358 381.306 30.3142C381.689 31.4828 382.073 32.6514 382.457 33.82C382.898 35.1659 383.364 36.551 384.224 37.6718C382.953 38.78 381.98 40.1892 381.395 41.7704C380.809 43.3516 380.63 45.0544 380.872 46.723C381.115 48.3916 381.772 49.9727 382.784 51.3217C383.795 52.6707 385.129 53.7446 386.663 54.4451C386.717 54.5624 386.771 54.6802 386.823 54.7992C386.872 54.8212 386.922 54.8402 386.971 54.8615C387.313 55.6455 387.567 56.4643 387.731 57.3035C386.399 57.4876 384.077 58.9604 381.793 61.1354L377.225 60.9792C374.274 60.8808 371.418 59.91 369.019 58.1894L355.36 48.3707C354.387 48.4663 353.469 48.8717 352.743 49.5273C351.047 47.7603 349.608 45.9142 349.73 44.8328C349.73 44.8328 343.379 32.9456 341.069 38.8892C338.759 44.8328 345.4 51.0594 345.4 51.0594L349.612 56.5163C349.446 57.4728 349.341 58.4389 349.297 59.4087C354.494 65.3523 372.683 70.7299 372.683 70.7299L375.52 70.8672C375.525 70.9192 375.53 70.9632 375.535 71.0065C375.361 71.7507 375.276 72.5129 375.282 73.2771C375.283 73.3869 375.285 73.5019 375.287 73.6169C375.287 73.6922 375.281 73.768 375.282 73.8432C375.426 83.3246 376.725 112.335 376.725 112.335C376.978 112.222 377.239 112.119 377.505 112.022L377.303 114.599C377.303 114.599 365.177 116.297 356.226 119.694C347.276 123.09 346.987 127.052 346.987 127.052V162.016C344.43 163.328 340.397 165.052 338.326 164.129C336.078 163.128 334.844 163.969 334.621 164.847V164.848C334.576 165.02 334.572 165.201 334.611 165.376L334.614 165.386C334.633 165.464 334.662 165.54 334.7 165.61L334.709 165.627C334.75 165.701 334.801 165.768 334.861 165.827C335.728 166.676 354.494 174.035 358.825 172.903C358.959 172.868 359.09 172.824 359.217 172.771C359.259 172.754 359.296 172.731 359.336 172.712C359.416 172.674 359.497 172.637 359.572 172.593C359.617 172.566 359.657 172.535 359.7 172.506C359.764 172.463 359.83 172.421 359.891 172.373C359.933 172.339 359.971 172.3 360.011 172.265C360.067 172.215 360.124 172.167 360.175 172.113C360.213 172.074 360.247 172.03 360.283 171.989C360.332 171.932 360.382 171.877 360.428 171.817C360.46 171.773 360.49 171.726 360.521 171.681C360.564 171.618 360.608 171.555 360.649 171.487C360.676 171.441 360.701 171.392 360.727 171.344C360.766 171.273 360.805 171.203 360.841 171.128C360.863 171.08 360.884 171.03 360.905 170.981C360.939 170.903 360.974 170.824 361.005 170.742C361.023 170.694 361.039 170.644 361.056 170.595C361.086 170.509 361.116 170.422 361.143 170.332C361.156 170.286 361.169 170.238 361.182 170.191C361.208 170.095 361.233 169.999 361.256 169.901C361.266 169.858 361.275 169.813 361.284 169.769C361.307 169.665 361.328 169.56 361.347 169.453C361.353 169.414 361.359 169.374 361.366 169.334C361.384 169.22 361.401 169.106 361.416 168.99C361.42 168.957 361.424 168.923 361.427 168.89C361.442 168.766 361.455 168.641 361.465 168.516C361.467 168.489 361.469 168.463 361.471 168.437C361.481 168.303 361.49 168.168 361.496 168.034C361.497 168.015 361.497 167.997 361.498 167.979C361.504 167.835 361.508 167.691 361.51 167.547L361.51 167.52C361.504 165.831 361.317 164.148 360.953 162.5L362.001 132.713C367.671 132.801 373.343 132.592 378.991 132.087L379.613 146.298C379.613 146.298 379.613 155.638 382.788 159.884C385.506 163.517 388.647 179.586 389.496 184.145C388.329 186.369 386.097 189.12 382.211 189.036C382.211 189.036 374.898 188.403 375.311 190.415L375.312 190.418C375.323 190.471 375.338 190.522 375.358 190.572L375.362 190.585C375.385 190.643 375.412 190.699 375.442 190.754L375.448 190.765C375.477 190.817 375.512 190.871 375.549 190.925C375.557 190.937 375.565 190.948 375.573 190.959C375.615 191.018 375.662 191.079 375.715 191.142L375.728 191.157C375.777 191.213 375.831 191.272 375.889 191.332C375.905 191.348 375.921 191.365 375.937 191.381C376.003 191.447 376.071 191.514 376.148 191.583C379.901 194.979 401.844 195.545 401.844 195.545L401.844 195.532L401.844 195.523L401.843 195.481L401.843 195.469C401.843 195.447 401.843 195.42 401.842 195.39L401.842 195.378C401.829 194.396 401.699 189.238 400.385 185.356H400.689C400.689 185.356 397.513 156.77 394.915 153.374C394.915 153.374 394.224 138.301 395.782 128.855C395.878 128.82 395.975 128.786 396.069 128.751C403.348 126.032 403.865 119.338 403.115 114.42C404.492 114.862 405.308 115.165 405.308 115.165C405.308 115.165 405.283 114.951 405.236 114.573C405.282 114.59 405.308 114.599 405.308 114.599C405.308 114.599 405.169 113.7 404.941 112.297C404.42 108.441 403.411 101.701 402.338 98.519C402.164 97.8195 401.998 97.2217 401.844 96.7685C401.224 94.8564 400.798 92.8867 400.573 90.8893C400.278 88.3009 400.129 85.6981 400.126 83.0931C400.15 79.612 400.417 76.1367 400.925 72.6927C401.365 69.6847 401.762 66.2635 401.729 63.8746C401.759 63.0426 401.701 62.2097 401.555 61.39C401.169 59.6261 399.468 58.4792 397.699 57.7495C397.585 57.7025 397.468 57.6639 397.353 57.6202C397.396 56.9516 397.452 56.1941 397.525 55.3954C397.738 55.5423 397.978 55.6444 398.231 55.6957C398.484 55.7469 398.744 55.7461 398.997 55.6933C399.757 55.5268 400.303 54.8921 400.789 54.295C403.348 51.1525 405.976 47.8769 406.958 43.9731C407.351 42.2295 407.533 40.445 407.499 38.6581C407.5 38.5604 407.5 38.4625 407.499 38.3644C407.538 37.6945 407.46 37.023 407.268 36.3799Z" fill="url(#paint0_linear)"/>
<path d="M383.97 51.6991C383.97 51.6991 387.847 57.5138 387.016 60.2828C386.185 63.0517 396.154 61.3903 396.154 61.3903C396.154 61.3903 396.431 50.5915 398.369 48.0994C400.308 45.6074 383.97 51.6991 383.97 51.6991Z" fill="#F7C4A7"/>
<path d="M358.355 55.4372C358.355 55.4372 350.324 48.7918 350.601 46.2997C350.601 46.2997 344.509 34.6702 342.294 40.4849C340.079 46.2997 346.448 52.3914 346.448 52.3914L354.201 62.6364L358.355 55.4372Z" fill="#F7C4A7"/>
<path d="M350.186 159.688C350.186 159.688 342.709 164.395 339.663 163.01C336.617 161.626 335.509 163.841 336.34 164.672C337.171 165.502 355.171 172.701 359.324 171.594C363.478 170.486 361.365 161.416 361.365 161.416L350.186 159.688Z" fill="#535461"/>
<path d="M389.785 179.901C389.785 179.901 387.985 187.515 381.754 187.377C381.754 187.377 372.339 186.546 375.939 189.869C379.539 193.192 400.585 193.745 400.585 193.745C400.585 193.745 400.585 182.393 396.708 179.901C392.831 177.409 389.785 179.901 389.785 179.901Z" fill="#535461"/>
<path d="M378.431 126.183L379.262 145.566C379.262 145.566 379.262 154.703 382.308 158.857C385.354 163.01 388.954 183.777 388.954 183.777H399.477C399.477 183.777 396.431 155.811 393.939 152.488C393.939 152.488 392.831 127.845 396.708 122.307L378.431 126.183Z" fill="#575988"/>
<path opacity="0.1" d="M378.431 126.183L379.262 145.566C379.262 145.566 379.262 154.703 382.308 158.857C385.354 163.01 388.954 183.777 388.954 183.777H399.477C399.477 183.777 396.431 155.811 393.939 152.488C393.939 152.488 392.831 127.845 396.708 122.307L378.431 126.183Z" fill="black"/>
<path d="M400.308 108.739C400.308 108.739 406.677 123.968 395.046 128.399C383.416 132.829 362.37 132.275 362.37 132.275L361.263 164.395C361.263 164.395 348.248 166.056 347.971 161.903V126.737C347.971 126.737 348.248 122.861 356.832 119.538C365.416 116.215 377.047 114.554 377.047 114.554L377.601 107.355L400.308 108.739Z" fill="#575988"/>
<path opacity="0.1" d="M390.103 58.5704C392.314 58.3259 394.552 58.6422 396.609 59.4902C398.306 60.2041 399.938 61.3262 400.308 63.0518C400.746 65.0954 400.26 69.6786 399.703 73.5557C398.812 79.6352 398.698 85.8035 399.366 91.9116C399.651 94.4553 400.045 96.6735 400.585 97.6634C402.246 100.709 403.908 115.108 403.908 115.108C403.908 115.108 385.631 108.185 376.493 112.339C376.493 112.339 375.247 83.9572 375.108 74.6813C375.001 67.4988 384.108 59.3137 387.154 59.0368C388.939 58.8745 388.329 58.7544 390.103 58.5704Z" fill="black"/>
<path d="M390.103 58.0165C392.314 57.772 394.552 58.0884 396.609 58.9363C398.306 59.6503 399.938 60.7723 400.308 62.4979C400.746 64.5416 400.26 69.1248 399.703 73.0019C398.812 79.0814 398.698 85.2497 399.366 91.3578C399.581 93.3106 399.99 95.2373 400.585 97.1096C401.831 100.848 403.908 114.554 403.908 114.554C403.908 114.554 385.631 107.632 376.493 111.785C376.493 111.785 375.247 83.4034 375.108 74.1274C375.001 66.945 384.108 58.7599 387.154 58.483C388.939 58.3207 388.329 58.2006 390.103 58.0165Z" fill="#E14B5A"/>
<path opacity="0.1" d="M395.046 73.2967L375.385 72.1891C375.385 72.1891 374.134 62.5508 376.972 62.6498L396.431 63.3285C396.431 63.3285 400.585 68.3126 395.046 73.2967Z" fill="black"/>
<path d="M395.046 72.743L372.616 71.6355C372.616 71.6355 355.171 66.3745 350.186 60.5597C350.186 60.5597 350.463 50.3147 356.001 49.7609L369.101 59.3668C371.391 61.0461 374.134 61.9971 376.972 62.0961L396.431 62.7749C396.431 62.7749 400.585 67.7589 395.046 72.743Z" fill="#E14B5A"/>
<path opacity="0.1" d="M396.016 52.945C396.345 50.3193 397.536 49.4484 398.369 48.3763C400.308 45.8843 383.97 51.9759 383.97 51.9759C384.812 53.2737 385.551 54.6359 386.178 56.05C387.483 56.6507 388.903 56.9612 390.339 56.96C392.748 56.96 394.292 54.3671 396.016 52.945Z" fill="black"/>
<path d="M390.339 56.6832C395.845 56.6832 400.308 52.2203 400.308 46.715C400.308 41.2097 395.845 36.7468 390.339 36.7468C384.833 36.7468 380.37 41.2097 380.37 46.715C380.37 52.2203 384.833 56.6832 390.339 56.6832Z" fill="#F7C4A7"/>
<path opacity="0.1" d="M384.044 39.728C382.982 38.5687 382.472 37.0219 381.99 35.5255L380.886 32.0957C382.387 32.9827 383.988 30.9836 385.71 30.708C386.943 30.5106 388.107 31.231 389.243 31.7503C394.172 34.0046 400.593 32.8858 404.563 36.5763C405.105 37.0456 405.525 37.6395 405.787 38.3069C405.972 38.9401 406.047 39.6002 406.009 40.2587C406.041 42.0064 405.867 43.7517 405.49 45.4585C404.548 49.2777 402.028 52.4823 399.573 55.5568C399.107 56.1409 398.584 56.7618 397.854 56.9247C396.429 57.2429 395.327 55.7028 394.775 54.3511C394.045 52.5606 393.507 50.6979 393.169 48.794C393.083 47.9797 392.861 47.1856 392.511 46.4453C391.653 44.9243 389.538 43.485 388.252 42.3068C386.987 41.1487 385.225 41.0177 384.044 39.728Z" fill="black"/>
<path d="M384.044 39.451C382.982 38.2917 382.472 36.745 381.99 35.2486L380.886 31.8188C382.387 32.7057 383.988 30.7066 385.71 30.431C386.943 30.2336 388.107 30.954 389.243 31.4733C394.172 33.7276 400.593 32.6089 404.563 36.2993C405.105 36.7686 405.525 37.3625 405.787 38.0299C405.972 38.6631 406.047 39.3232 406.009 39.9818C406.041 41.7294 405.867 43.4747 405.49 45.1815C404.548 49.0007 402.028 52.2054 399.573 55.2798C399.107 55.8639 398.584 56.4849 397.854 56.6478C396.429 56.966 395.327 55.4259 394.775 54.0741C394.045 52.2837 393.507 50.4209 393.169 48.517C393.083 47.7027 392.861 46.9087 392.511 46.1683C391.653 44.6473 389.538 43.208 388.252 42.0298C386.987 40.8718 385.225 40.7408 384.044 39.451Z" fill="#632652"/>
<path d="M392.97 49.6225C393.428 49.6225 393.8 48.8166 393.8 47.8226C393.8 46.8286 393.428 46.0228 392.97 46.0228C392.511 46.0228 392.139 46.8286 392.139 47.8226C392.139 48.8166 392.511 49.6225 392.97 49.6225Z" fill="#F7C4A7"/>
<path opacity="0.1" d="M397.954 95.8635C397.954 95.8635 397.4 97.5249 394.631 97.248C391.862 96.9711 383.831 96.4173 383.831 97.248" fill="black"/>
<path opacity="0.5" d="M375.939 189.592C375.559 189.299 375.277 188.895 375.134 188.437C375.061 188.796 375.283 189.263 375.939 189.869C379.539 193.192 400.585 193.745 400.585 193.745C400.585 193.745 400.585 193.647 400.582 193.468C400.449 193.465 379.528 192.904 375.939 189.592Z" fill="white"/>
<path opacity="0.5" d="M359.324 171.04C355.17 172.148 337.171 164.948 336.34 164.118C336.229 164.005 336.15 163.866 336.11 163.713C336.062 163.879 336.058 164.055 336.098 164.223C336.138 164.391 336.222 164.546 336.34 164.672C337.171 165.502 355.171 172.701 359.324 171.594C361.462 171.024 361.939 168.345 361.899 165.878C361.858 168.178 361.303 170.513 359.324 171.04Z" fill="white"/>
<path d="M201.358 192.261C200.387 186.859 199.791 181.396 199.575 175.911V175.911C199.385 171.394 197.801 167.047 195.041 163.465C192.281 159.884 188.48 157.245 184.161 155.909C182.587 155.425 180.853 154.973 178.94 154.567C162.159 151.003 157.061 154.114 156.482 154.524C155.993 153.63 155.568 152.703 155.211 151.749C155.183 151.652 155.156 151.553 155.129 151.455C158.45 147.914 160.473 143.352 160.869 138.513C163.668 135.675 165.303 132.251 165.303 128.564C165.303 125.394 164.093 122.418 161.973 119.841V114.838C161.973 111.977 161.41 109.143 160.315 106.5C159.22 103.856 157.614 101.454 155.591 99.4307C153.567 97.4073 151.165 95.8023 148.521 94.7073C145.878 93.6123 143.044 93.0487 140.182 93.0487H138.415C135.553 93.0487 132.72 93.6123 130.076 94.7073C127.432 95.8023 125.03 97.4073 123.006 99.4307C120.983 101.454 119.378 103.856 118.283 106.5C117.188 109.143 116.624 111.977 116.624 114.838V120.239C114.714 122.597 113.653 125.53 113.611 128.564C113.611 132.173 115.18 135.53 117.872 138.333C118.24 143.349 120.356 148.078 123.853 151.694C123.971 152.512 124.092 153.393 124.211 154.322L94.1871 160.671C94.1871 160.671 82.6119 161.147 75.1594 176.526C68.8503 189.546 56.2914 223.018 52.586 232.983H52.586L52.586 232.983C51.9145 234.789 51.5333 235.824 51.5333 235.824C51.5333 235.824 51.6561 235.7 51.892 235.488C51.6588 236.118 51.5333 236.458 51.5333 236.458C51.5333 236.458 51.7155 236.274 52.0618 235.971C51.5359 240.142 51.4609 247.299 56.9244 248.191C61.5043 248.939 73.3009 249.246 82.2155 249.372V249.38H82.8338C88.7411 249.46 93.2357 249.46 93.2357 249.46V249.38H189.088V248.398C189.089 247.506 188.909 246.623 188.56 245.802C188.606 245.749 188.65 245.696 188.693 245.642C189.206 246.319 189.547 247.11 189.688 247.948C189.677 248.03 189.662 248.111 189.643 248.191C189.643 248.191 189.663 248.14 189.699 248.045C189.722 248.306 189.703 248.57 189.643 248.825C189.643 248.825 201.941 217.141 201.809 198.223C201.845 196.226 201.694 194.23 201.358 192.261ZM124.703 158.6C124.544 157.696 124.443 156.784 124.398 155.867L124.399 155.842C124.505 156.732 124.607 157.654 124.703 158.6ZM87.4481 226.655V234.206L82.7141 235.217L87.4481 226.655Z" fill="url(#paint1_linear)"/>
<path d="M138.807 96.0962H138.807C144.586 96.0962 150.129 98.3919 154.215 102.478C158.302 106.564 160.598 112.107 160.598 117.886V127.18H117.016V117.886C117.016 112.107 119.311 106.564 123.398 102.478C127.485 98.3918 133.027 96.0962 138.807 96.0962Z" fill="#E14B5A"/>
<path d="M138.959 147.294C152.677 147.294 163.798 139.653 163.798 130.228C163.798 120.803 152.677 113.162 138.959 113.162C125.241 113.162 114.12 120.803 114.12 130.228C114.12 139.653 125.241 147.294 138.959 147.294Z" fill="#E14B5A"/>
<path d="M123.035 146.76C123.035 146.76 128.216 173.883 123.035 181.197C117.854 188.511 138.883 191.406 138.883 191.406L160.674 183.482L163.722 163.978C163.722 163.978 150.464 156.512 153.207 141.427L123.035 146.76Z" fill="#F7C4A7"/>
<path d="M187.341 238.184C187.341 238.184 188.713 244.127 181.246 245.193C176.837 245.842 172.352 245.789 167.959 245.035L166.312 230.108H183.684L187.341 238.184Z" fill="#F7C4A7"/>
<path d="M55.473 230.578C55.473 230.578 52.1755 243.974 59.6424 245.193C67.1093 246.412 94.5387 246.412 94.5387 246.412V230.566L82.1216 233.217L70.4617 222.033L55.473 230.578Z" fill="#F7C4A7"/>
<path opacity="0.1" d="M124.635 155.522L95.453 161.693C95.453 161.693 84.3288 162.15 77.1667 176.93C70.0046 191.71 54.4613 233.918 54.4613 233.918C54.4613 233.918 67.7188 220.509 83.2621 234.832L93.6244 216.09L91.3386 245.803H171.646V231.784C171.646 231.784 188.408 240.774 187.189 245.803C187.189 245.803 201.533 208.848 198.448 192.052C197.515 186.861 196.942 181.61 196.734 176.339V176.339C196.551 171.998 195.029 167.82 192.377 164.378C189.724 160.937 186.072 158.4 181.92 157.117C180.409 156.652 178.741 156.217 176.903 155.826C159.684 152.17 155.264 155.826 155.264 155.826C155.264 155.826 151.929 166.679 151.988 171.597C152.064 177.921 142.997 182.111 142.997 182.111C142.997 182.111 129.587 178.911 128.978 176.321C128.368 173.73 123.568 158.569 124.635 155.522Z" fill="black"/>
<path d="M124.635 154.912L95.453 161.083C95.453 161.083 84.3288 161.54 77.1667 176.321C70.0046 191.101 54.4613 233.308 54.4613 233.308C54.4613 233.308 67.7188 219.899 83.2621 234.222L93.6244 215.481L91.3386 245.193H171.646V231.175C171.646 231.175 188.408 240.165 187.189 245.193C187.189 245.193 201.533 208.238 198.448 191.443C197.515 186.251 196.942 181.001 196.734 175.73V175.73C196.551 171.389 195.029 167.211 192.377 163.769C189.724 160.327 186.072 157.791 181.92 156.507C180.409 156.042 178.741 155.607 176.903 155.217C159.684 151.56 155.264 155.217 155.264 155.217C155.264 155.217 151.929 166.069 151.988 170.988C152.064 177.311 142.997 181.501 142.997 181.501C142.997 181.501 129.587 178.302 128.978 175.711C128.368 173.121 123.568 157.96 124.635 154.912Z" fill="#575988"/>
<path opacity="0.1" d="M154.459 153.617C153.234 150.147 152.959 146.411 153.664 142.799L123.492 148.132C123.492 148.132 123.927 150.412 124.42 153.828C126.37 155.851 128.711 157.456 131.3 158.546C133.89 159.636 136.675 160.188 139.485 160.169C142.295 160.149 145.071 159.558 147.645 158.432C150.22 157.306 152.538 155.668 154.459 153.617Z" fill="black"/>
<path d="M159.607 138.075C159.607 143.527 157.458 148.76 153.626 152.639C149.794 156.518 144.587 158.73 139.134 158.796C133.682 158.862 128.423 156.777 124.498 152.992C120.572 149.208 118.297 144.029 118.165 138.578C118.16 138.41 118.158 138.243 118.158 138.075C118.158 134.195 119.246 130.392 121.3 127.1C123.354 123.808 126.291 121.159 129.776 119.453C130.398 119.15 131.037 118.877 131.692 118.634C135.103 117.38 138.783 117.038 142.366 117.643C142.369 117.645 142.371 117.645 142.374 117.645C146.965 118.426 151.158 120.732 154.276 124.19C157.395 127.648 159.257 132.056 159.562 136.702C159.592 137.156 159.607 137.614 159.607 138.075Z" fill="#F7C4A7"/>
<g opacity="0.1">
<path opacity="0.1" d="M131.663 119.12C131.672 119.113 131.682 119.107 131.692 119.102C131.037 119.344 130.398 119.617 129.776 119.921C126.291 121.627 123.354 124.276 121.3 127.568C119.246 130.86 118.158 134.663 118.158 138.543C118.158 138.711 118.16 138.878 118.165 139.046C118.809 139.029 119.442 138.877 120.024 138.599C125.077 136.242 128.108 129.027 129.298 123.996C129.725 122.195 130.133 120.165 131.663 119.12Z" fill="black"/>
<path opacity="0.1" d="M147.526 119.702C145.886 118.948 144.154 118.414 142.374 118.113C143.834 118.448 145.138 119.267 146.074 120.436C146.533 121.061 146.913 121.739 147.207 122.455C144.448 121.25 141.461 120.657 138.452 120.72C135.442 120.782 132.482 121.498 129.776 122.817C131.078 125.667 135.111 127.223 137.804 128.264C140.753 129.402 143.736 130.443 146.754 131.386C145.865 130.664 144.977 129.943 144.088 129.222C146.094 129.541 148.1 129.86 150.106 130.179C150.171 128.981 150.029 127.781 149.686 126.632C150.832 127.561 152.367 127.872 153.619 128.662C155.964 130.14 156.939 132.992 158.218 135.451C158.514 136.128 158.976 136.72 159.562 137.17C159.315 133.445 158.066 129.855 155.947 126.78C153.829 123.706 150.919 121.26 147.526 119.702Z" fill="black"/>
</g>
<path d="M131.663 118.652C131.672 118.645 131.682 118.639 131.692 118.634C131.037 118.876 130.398 119.149 129.776 119.453C126.291 121.159 123.354 123.808 121.3 127.1C119.246 130.392 118.158 134.195 118.158 138.075C118.158 138.243 118.16 138.41 118.165 138.578C118.809 138.561 119.442 138.409 120.024 138.131C125.077 135.774 128.108 128.559 129.298 123.528C129.725 121.727 130.133 119.697 131.663 118.652Z" fill="#632652"/>
<path d="M147.526 119.234C145.886 118.48 144.154 117.946 142.374 117.645C143.834 117.98 145.138 118.799 146.074 119.968C146.533 120.593 146.913 121.271 147.207 121.987C144.448 120.782 141.461 120.189 138.452 120.252C135.442 120.314 132.482 121.03 129.776 122.349C131.078 125.199 135.111 126.755 137.804 127.796C140.753 128.934 143.736 129.975 146.754 130.918C145.865 130.196 144.977 129.475 144.088 128.754C146.094 129.073 148.1 129.392 150.106 129.711C150.171 128.513 150.029 127.314 149.686 126.164C150.832 127.093 152.367 127.404 153.619 128.194C155.964 129.672 156.939 132.524 158.218 134.983C158.514 135.66 158.976 136.252 159.562 136.702C159.315 132.977 158.066 129.387 155.947 126.312C153.829 123.238 150.919 120.792 147.526 119.234Z" fill="#632652"/>
<path opacity="0.1" d="M115.796 134.657C115.796 134.657 137.13 108.145 161.817 134.657L159.684 128.715C159.684 128.715 148.102 111.801 139.873 115.458C131.645 119.115 123.568 121.706 123.568 121.706L115.796 134.657Z" fill="black"/>
<path d="M115.796 134.189C115.796 134.189 137.13 107.676 161.817 134.189L159.684 128.247C159.684 128.247 148.102 111.333 139.873 114.99C131.645 118.647 123.568 121.238 123.568 121.238L115.796 134.189Z" fill="#E14B5A"/>
<path opacity="0.1" d="M98.2721 191.329C98.2721 191.329 93.7005 203.519 100.101 214.49C106.501 225.461 94.4625 230.032 94.4625 230.032" fill="black"/>
<path opacity="0.1" d="M172.332 180.359C172.332 180.359 180.256 190.415 175.074 199.405C169.893 208.395 170.198 230.032 170.198 230.032" fill="black"/>
<path d="M91.2624 239.022H179.341C181.281 239.022 183.142 239.793 184.513 241.164C185.885 242.536 186.656 244.396 186.656 246.336H83.9479C83.9479 244.396 84.7185 242.536 86.0902 241.164C87.462 239.793 89.3225 239.022 91.2624 239.022H91.2624Z" fill="#535461"/>
<path d="M104.512 188.739H166.092C170.212 188.739 174.164 190.376 177.077 193.289C179.99 196.202 181.627 200.153 181.627 204.273V240.698H88.9766V204.273C88.9766 200.153 90.6133 196.202 93.5267 193.289C96.4401 190.376 100.392 188.739 104.512 188.739Z" fill="#535461"/>
<path d="M135.226 222.49C138.255 222.49 140.711 220.034 140.711 217.004C140.711 213.975 138.255 211.519 135.226 211.519C132.196 211.519 129.74 213.975 129.74 217.004C129.74 220.034 132.196 222.49 135.226 222.49Z" fill="white"/>
<path opacity="0.1" d="M117.016 122.226C117.016 122.226 137.984 101.271 160.598 121.844" stroke="black" stroke-miterlimit="10"/>
<path d="M165.896 120.892H163.791V132.824H165.896V120.892Z" fill="#6A5C99"/>
<path d="M160.983 128.613C162.906 128.613 164.752 129.377 166.112 130.737C167.472 132.097 168.236 133.942 168.236 135.866V136.334C168.236 138.257 167.472 140.102 166.112 141.463C164.752 142.823 162.906 143.587 160.983 143.587V128.613Z" fill="#FFD037"/>
<path d="M161.217 127.911H161.217C160.312 127.911 159.579 128.644 159.579 129.548V142.651C159.579 143.555 160.312 144.289 161.217 144.289C162.121 144.289 162.855 143.555 162.855 142.651V129.548C162.855 128.644 162.121 127.911 161.217 127.911Z" fill="#6A5C99"/>
<path d="M111.502 133.058H113.608V121.125H111.502V133.058Z" fill="#6A5C99"/>
<path d="M116.416 143.821C114.492 143.821 112.647 143.057 111.287 141.697C109.926 140.336 109.162 138.491 109.162 136.568V136.1C109.162 134.176 109.926 132.331 111.287 130.971C112.647 129.611 114.492 128.847 116.416 128.847V143.821Z" fill="#FFD037"/>
<path d="M116.182 144.523H116.182C117.086 144.523 117.82 143.79 117.82 142.885V129.783C117.82 128.878 117.086 128.145 116.182 128.145C115.277 128.145 114.544 128.878 114.544 129.783V142.885C114.544 143.79 115.277 144.523 116.182 144.523Z" fill="#6A5C99"/>
<path d="M163.541 108.137C160.69 102.209 154.479 95.0411 141.092 94.469L141.093 94.4526L140.933 94.4603L140.922 94.4597L140.922 94.4608L136.179 94.6866L136.18 94.7099C122.881 95.322 116.7 102.462 113.857 108.371C111.967 112.375 110.964 116.739 110.917 121.166L112.555 121.126L114.192 121.088C114.264 117.142 115.173 113.257 116.859 109.689C120.47 102.274 127.112 98.3306 136.602 97.9668L136.602 97.9639L140.797 97.7318L140.796 97.7329C150.286 98.0966 156.929 102.04 160.539 109.455C162.225 113.023 163.134 116.908 163.206 120.854L164.844 120.892L166.481 120.932C166.434 116.505 165.431 112.14 163.541 108.137Z" fill="#FFD037"/>
<path d="M238.362 246.432H14.9834V306.402H238.362V246.432Z" fill="#D6D6E3"/>
<path opacity="0.1" d="M238.362 250.469H14.9834V258.253H238.362V250.469Z" fill="black"/>
<path d="M253.344 245.568H0V253.352H253.344V245.568Z" fill="#D6D6E3"/>
<path d="M173.477 226.208C173.477 226.208 183.037 243.734 206.938 238.954C230.838 234.174 219.286 283.166 219.286 283.166C219.286 283.166 215.375 306.537 218.127 306.402" stroke="#535461" stroke-width="3" stroke-miterlimit="10"/>
</g>
<defs>
<linearGradient id="paint0_linear" x1="371.042" y1="195.545" x2="371.042" y2="28.5785" gradientUnits="userSpaceOnUse">
<stop stop-color="#808080" stop-opacity="0.25"/>
<stop offset="0.53514" stop-color="#808080" stop-opacity="0.12"/>
<stop offset="1" stop-color="#808080" stop-opacity="0.1"/>
</linearGradient>
<linearGradient id="paint1_linear" x1="53501.1" y1="108278" x2="53501.1" y2="46856.5" gradientUnits="userSpaceOnUse">
<stop stop-color="#808080" stop-opacity="0.25"/>
<stop offset="0.53514" stop-color="#808080" stop-opacity="0.12"/>
<stop offset="1" stop-color="#808080" stop-opacity="0.1"/>
</linearGradient>
<clipPath id="clip0">
<rect width="448" height="307" fill="white"/>
</clipPath>
</defs>
</svg>
