<svg width="446" height="329" viewBox="0 0 446 329" fill="none" xmlns="http://www.w3.org/2000/svg">
<path d="M446 121.824H258.53V127.33H446V121.824Z" fill="#4B4B4B"/>
<path d="M321.52 75.7758H274.027V123.326H321.52V75.7758Z" fill="#4B4B4B"/>
<path d="M312.021 85.2857H283.526V113.816H312.021V85.2857Z" fill="#CCCCCC"/>
<path d="M392.508 75.7758H380.51V123.326H392.508V75.7758Z" fill="#4B4B4B"/>
<path d="M392.508 83.2836H380.51V88.7894H392.508V83.2836Z" fill="#CCCCCC"/>
<path d="M392.508 107.309H380.51V112.815H392.508V107.309Z" fill="#CCCCCC"/>
<path d="M374.011 75.7758H362.013V123.326H374.011V75.7758Z" fill="#4B4B4B"/>
<path d="M374.011 83.2836H362.013V88.7894H374.011V83.2836Z" fill="#CCCCCC"/>
<path d="M374.011 107.309H362.013V112.815H374.011V107.309Z" fill="#CCCCCC"/>
<path d="M402.846 75.5792L392.094 80.9091L413.166 123.522L423.918 118.192L402.846 75.5792Z" fill="#4B4B4B"/>
<path d="M406.173 82.3076L395.421 87.6375L397.861 92.5716L408.613 87.2417L406.173 82.3076Z" fill="#CCCCCC"/>
<path d="M416.82 103.838L406.068 109.168L408.508 114.103L419.26 108.773L416.82 103.838Z" fill="#CCCCCC"/>
<path d="M291.774 94.8623L297.817 105.34L303.859 115.818H291.774H279.69L285.732 105.34L291.774 94.8623Z" fill="#4B4B4B"/>
<path d="M302.273 96.8644L308.315 107.342L314.357 117.82H302.273H290.189L296.231 107.342L302.273 96.8644Z" fill="#4B4B4B"/>
<path d="M306.522 93.7946C308.455 93.7946 310.021 92.226 310.021 90.291C310.021 88.3559 308.455 86.7873 306.522 86.7873C304.589 86.7873 303.022 88.3559 303.022 90.291C303.022 92.226 304.589 93.7946 306.522 93.7946Z" fill="#4B4B4B"/>
<path d="M258.53 51.7506L446 51.7506V46.2448L258.53 46.2448V51.7506Z" fill="#4B4B4B"/>
<path d="M383.01 47.7464L430.502 47.7464V0.196632L383.01 0.196632V47.7464Z" fill="#4B4B4B"/>
<path d="M392.508 38.2365H421.004V9.70657L392.508 9.70657V38.2365Z" fill="#CCCCCC"/>
<path d="M312.021 47.7464H324.02V0.196632H312.021V47.7464Z" fill="#4B4B4B"/>
<path d="M312.021 13.2102L324.02 13.2102V7.70448L312.021 7.70448V13.2102Z" fill="#CCCCCC"/>
<path d="M312.021 37.2354H324.02V31.7296H312.021V37.2354Z" fill="#CCCCCC"/>
<path d="M330.518 47.7464H342.517V0.196632H330.518V47.7464Z" fill="#4B4B4B"/>
<path d="M330.518 13.2102L342.517 13.2102V7.70448L330.518 7.70448V13.2102Z" fill="#CCCCCC"/>
<path d="M330.518 37.2354H342.517V31.7296H330.518V37.2354Z" fill="#CCCCCC"/>
<path d="M280.611 42.6132L291.364 47.9431L312.436 5.32988L301.683 2.04276e-05L280.611 42.6132Z" fill="#4B4B4B"/>
<path d="M295.917 11.6626L306.669 16.9924L309.109 12.0583L298.356 6.72841L295.917 11.6626Z" fill="#CCCCCC"/>
<path d="M285.27 33.1935L296.022 38.5233L298.462 33.5892L287.709 28.2593L285.27 33.1935Z" fill="#CCCCCC"/>
<path d="M412.755 19.2829L406.713 29.7606L400.671 40.2383H412.755H424.84L418.797 29.7606L412.755 19.2829Z" fill="#4B4B4B"/>
<path d="M402.257 21.285L396.215 31.7627L390.173 42.2405H402.257H414.341L408.299 31.7627L402.257 21.285Z" fill="#4B4B4B"/>
<path d="M398.008 18.2155C399.94 18.2155 401.507 16.6468 401.507 14.7118C401.507 12.7768 399.94 11.2082 398.008 11.2082C396.075 11.2082 394.508 12.7768 394.508 14.7118C394.508 16.6468 396.075 18.2155 398.008 18.2155Z" fill="#4B4B4B"/>
<path d="M258.53 202.909L446 202.909V197.403L258.53 197.403V202.909Z" fill="#4B4B4B"/>
<path d="M383.01 198.905H430.502V151.355H383.01V198.905Z" fill="#4B4B4B"/>
<path d="M392.508 189.395H421.004V160.865H392.508V189.395Z" fill="#CCCCCC"/>
<path d="M312.021 198.905H324.02V151.355H312.021V198.905Z" fill="#4B4B4B"/>
<path d="M312.021 164.369H324.02V158.863H312.021V164.369Z" fill="#CCCCCC"/>
<path d="M312.021 188.394H324.02V182.888H312.021V188.394Z" fill="#CCCCCC"/>
<path d="M330.518 198.905H342.517V151.355H330.518V198.905Z" fill="#4B4B4B"/>
<path d="M330.518 164.369H342.517V158.863H330.518V164.369Z" fill="#CCCCCC"/>
<path d="M330.518 188.394H342.517V182.888H330.518V188.394Z" fill="#CCCCCC"/>
<path d="M280.611 193.771L291.364 199.101L312.436 156.488L301.683 151.158L280.611 193.771Z" fill="#4B4B4B"/>
<path d="M295.916 162.821L306.669 168.151L309.109 163.217L298.356 157.887L295.916 162.821Z" fill="#CCCCCC"/>
<path d="M285.269 184.352L296.022 189.682L298.462 184.747L287.709 179.418L285.269 184.352Z" fill="#CCCCCC"/>
<path d="M412.755 170.441L406.713 180.919L400.671 191.397H412.755H424.84L418.797 180.919L412.755 170.441Z" fill="#4B4B4B"/>
<path d="M402.257 172.443L396.215 182.921L390.173 193.399H402.257H414.341L408.299 182.921L402.257 172.443Z" fill="#4B4B4B"/>
<path d="M398.008 169.374C399.94 169.374 401.507 167.805 401.507 165.87C401.507 163.935 399.94 162.366 398.008 162.366C396.075 162.366 394.508 163.935 394.508 165.87C394.508 167.805 396.075 169.374 398.008 169.374Z" fill="#4B4B4B"/>
<path d="M220.84 329C342.807 329 441.68 321.969 441.68 313.296C441.68 304.624 342.807 297.593 220.84 297.593C98.8735 297.593 0 304.624 0 313.296C0 321.969 98.8735 329 220.84 329Z" fill="#4B4B4B"/>
<path d="M393.372 322.09C357.362 315.673 317.984 316.74 276.678 322.09C295.504 306.177 311.753 290.264 292.926 274.351C329.65 281.937 334.794 281.169 375.646 274.351C366.171 290.264 383.896 306.177 393.372 322.09Z" fill="#6C63FF"/>
<path opacity="0.2" d="M393.372 322.09C357.362 315.673 317.984 316.74 276.678 322.09C295.504 306.177 311.753 290.264 292.926 274.351C329.65 281.937 334.794 281.169 375.646 274.351C366.171 290.264 383.896 306.177 393.372 322.09Z" fill="#E8E8E8"/>
<path d="M384.588 315.301C353.999 310.179 320.549 311.031 285.461 315.301C301.454 302.599 315.256 289.897 299.263 277.195C330.459 283.25 334.828 282.637 369.531 277.195C361.482 289.897 376.539 302.599 384.588 315.301Z" fill="#6C63FF"/>
<path d="M372.937 294.835C381.939 294.835 389.236 287.529 389.236 278.517C389.236 269.505 381.939 262.199 372.937 262.199C363.936 262.199 356.639 269.505 356.639 278.517C356.639 287.529 363.936 294.835 372.937 294.835Z" fill="#2F2E41"/>
<path d="M298.95 259.59L310.243 261.475L315.889 277.806L299.577 287.857L280.755 259.59H298.322H298.95Z" fill="#A0616A"/>
<path d="M330.946 284.716C345.499 284.716 357.297 272.904 357.297 258.334C357.297 243.763 345.499 231.952 330.946 231.952C316.394 231.952 304.596 243.763 304.596 258.334C304.596 272.904 316.394 284.716 330.946 284.716Z" fill="#A0616A"/>
<path d="M185.393 162.228C185.393 162.228 121.399 169.137 110.106 167.881C98.8135 166.625 93.7944 165.368 93.7944 165.368C93.7944 165.368 86.2658 175.419 90.0301 179.816C92.1383 182.349 94.6894 184.478 97.5587 186.097C97.5587 186.097 104.46 184.213 109.479 186.097C114.498 187.982 165.317 196.148 174.1 188.61C182.883 181.072 185.393 162.228 185.393 162.228Z" fill="#2F2E41"/>
<path d="M189.784 302.304C189.784 302.304 147.749 290.369 140.221 237.605V232.58C140.221 232.58 131.904 247.188 128.928 250.168C125.477 253.623 113.243 284.716 113.87 287.856C114.498 290.997 113.87 292.254 113.87 292.254L95.6763 290.369V284.716C95.6763 284.716 105.401 255.507 106.028 248.597C106.656 241.688 130.183 193.635 130.183 193.635C130.183 193.635 138.966 175.419 154.023 193.635C169.081 211.851 170.335 224.414 170.335 224.414L189.784 262.103L189.784 302.304Z" fill="#2F2E41"/>
<path d="M95.6764 163.484L75.6 156.574C75.6 156.574 56.7784 142.755 61.1701 156.574C65.5618 170.394 85.6382 200.544 91.2847 197.404C96.9312 194.263 103.722 186.467 102.209 185.34C100.695 184.213 90.6573 176.047 95.6764 163.484Z" fill="#2F2E41"/>
<path d="M98.1034 281.007L81.8968 288.932C81.8968 288.932 62.2981 291.951 73.2281 297.611C84.1582 303.271 114.31 309.309 115.818 304.026C117.325 298.743 116.727 289.975 115.142 290.208C113.556 290.441 102.626 291.573 98.1034 281.007Z" fill="#2F2E41"/>
<path d="M181.628 260.846C181.628 260.846 173.472 296.022 187.275 303.56C201.077 311.098 297.695 312.354 305.224 298.535C312.752 284.716 308.988 284.716 308.988 284.716L288.911 262.103L305.224 260.846C305.224 260.846 305.224 255.821 299.577 255.193C293.931 254.565 276.364 248.283 261.306 252.68C246.249 257.078 237.466 243.886 237.466 243.886L181.628 260.846Z" fill="#575A89"/>
<path d="M170.963 150.921L160.297 209.339L233.702 200.545L246.877 147.78L170.963 150.921Z" fill="#3F3D56"/>
<path d="M173.159 153.12L164.375 205.255L231.192 197.404L244.053 149.979L173.159 153.12Z" fill="white"/>
<path d="M162.807 209.967L160.297 209.339L159.042 211.851L179.119 267.756L181.007 267.033L181.628 263.359L162.807 209.967Z" fill="#B3B3B3"/>
<path d="M160.297 208.71L180.374 267.128L256.288 255.821L233.702 200.545L160.297 208.71Z" fill="#D0CDE1"/>
<path d="M170.336 206.826V209.967L226.173 203.685L225.546 200.545L170.336 206.826Z" fill="#3F3D56"/>
<path d="M171.59 213.108L180.374 237.605L237.466 230.696L227.428 207.454L171.59 213.108Z" fill="#3F3D56"/>
<path d="M243.112 247.655L241.23 242.63C241.23 242.63 226.8 217.504 219.272 222.53C211.743 227.555 234.956 252.052 234.956 252.052H242.485L243.112 247.655Z" fill="#A0616A"/>
<path d="M195.431 251.424L193.549 243.886C193.549 243.886 188.53 220.645 197.313 221.901C206.096 223.158 208.606 245.143 208.606 245.143L207.979 250.168L195.431 251.424Z" fill="#A0616A"/>
<path d="M210.488 248.283C210.488 248.283 194.176 245.771 193.549 249.54C192.921 253.309 189.784 309.842 205.469 311.726C221.154 313.61 298.95 321.776 290.794 302.304C282.638 282.831 270.09 285.344 270.09 285.344L216.762 290.997L210.488 248.283Z" fill="#575A89"/>
<path d="M259.738 255.507L243.112 243.886L232.133 252.367L245.936 267.442L259.738 255.507Z" fill="#575A89"/>
<path opacity="0.2" d="M215.194 266.814L217.703 290.683L260.993 288.171L223.349 287.543L215.194 266.814Z" fill="#E8E8E8"/>
<path d="M343.954 294.535C361.279 294.535 375.323 280.473 375.323 263.127C375.323 245.782 361.279 231.72 343.954 231.72C326.629 231.72 312.584 245.782 312.584 263.127C312.584 280.473 326.629 294.535 343.954 294.535Z" fill="#2F2E41"/>
<path d="M182.57 171.336L221.468 169.98L225.232 155.632L185.079 156.846L182.57 171.336Z" fill="#6C63FF"/>
<path d="M172.532 179.502L231.506 177.617L232.133 175.105L173.159 177.184L172.532 179.502Z" fill="#4B4B4B"/>
<path d="M171.276 185.783L230.251 183.899L230.878 181.386L171.904 183.465L171.276 185.783Z" fill="#4B4B4B"/>
<path d="M170.649 190.808L229.623 188.924L230.251 186.411L171.277 188.49L170.649 190.808Z" fill="#4B4B4B"/>
</svg>
