<svg width="186" height="39" viewBox="0 0 186 39" fill="none" xmlns="http://www.w3.org/2000/svg">
<path d="M22.696 24.952C22.696 26.264 22.424 27.48 21.88 28.6C21.336 29.72 20.6 30.744 19.672 31.672C18.744 32.568 17.656 33.368 16.408 34.072C15.192 34.744 13.896 35.32 12.52 35.8C11.176 36.248 9.784 36.6 8.344 36.856C6.936 37.08 5.576 37.192 4.264 37.192C3.08 37.192 1.976 37.096 0.952 36.904C2.488 31.304 3.704 25.672 4.6 20.008C5.528 14.312 6.408 8.584 7.24 2.824C8.904 2.472 10.632 2.168 12.424 1.912C14.216 1.624 16.072 1.48 17.992 1.48C18.792 1.48 19.64 1.576 20.536 1.768C21.432 1.96 22.248 2.312 22.984 2.824C23.72 3.336 24.328 4.008 24.808 4.84C25.32 5.672 25.576 6.728 25.576 8.008C25.576 9.224 25.368 10.36 24.952 11.416C24.568 12.472 24.056 13.432 23.416 14.296C22.808 15.16 22.104 15.912 21.304 16.552C20.504 17.16 19.688 17.624 18.856 17.944C19.272 18.168 19.704 18.488 20.152 18.904C20.6 19.32 21.016 19.816 21.4 20.392C21.784 20.936 22.088 21.592 22.312 22.36C22.568 23.128 22.696 23.992 22.696 24.952ZM11.704 19.96C11.576 20.728 11.448 21.416 11.32 22.024C11.224 22.6 11.128 23.16 11.032 23.704C10.936 24.248 10.824 24.824 10.696 25.432C10.6 26.008 10.488 26.696 10.36 27.496C10.968 27.432 11.656 27.32 12.424 27.16C13.192 27 13.928 26.76 14.632 26.44C15.336 26.088 15.928 25.64 16.408 25.096C16.888 24.52 17.128 23.832 17.128 23.032C17.128 22.456 16.968 21.976 16.648 21.592C16.36 21.208 15.976 20.888 15.496 20.632C15.048 20.376 14.552 20.2 14.008 20.104C13.464 19.976 12.952 19.912 12.472 19.912C12.312 19.912 12.168 19.912 12.04 19.912C11.944 19.912 11.832 19.928 11.704 19.96ZM13.864 8.344C13.8 8.696 13.72 9.112 13.624 9.592C13.56 10.072 13.48 10.584 13.384 11.128C13.288 11.64 13.176 12.152 13.048 12.664C12.952 13.176 12.872 13.624 12.808 14.008C13.512 13.88 14.216 13.704 14.92 13.48C15.624 13.256 16.248 13.016 16.792 12.76C17.368 12.472 17.816 12.168 18.136 11.848C18.488 11.528 18.664 11.176 18.664 10.792C18.664 10.312 18.52 9.928 18.232 9.64C17.944 9.32 17.56 9.064 17.08 8.872C16.632 8.68 16.152 8.552 15.64 8.488C15.16 8.392 14.728 8.344 14.344 8.344H13.864ZM20.0912 36.712C21.4992 32.456 22.8433 28.28 24.1233 24.184C24.6673 22.456 25.2273 20.648 25.8033 18.76C26.3793 16.872 26.9553 15 27.5312 13.144C28.1073 11.288 28.6353 9.496 29.1153 7.768C29.6273 6.04 30.0753 4.44 30.4593 2.968C32.2193 2.968 33.8833 2.872 35.4513 2.68C37.0193 2.488 38.7153 2.312 40.5393 2.152C40.4433 2.856 40.3313 3.656 40.2033 4.552C40.1073 5.416 39.9793 6.328 39.8193 7.288C39.6913 8.248 39.5473 9.24 39.3873 10.264C39.2273 11.288 39.0353 12.6 38.8113 14.2C38.5873 15.8 38.2833 17.8 37.8993 20.2H38.5233C39.4513 17.768 40.2193 15.752 40.8273 14.152C41.4353 12.52 41.9313 11.192 42.3153 10.168C42.6993 9.144 43.0833 8.152 43.4673 7.192C43.8833 6.2 44.2673 5.272 44.6193 4.408C45.0033 3.512 45.3553 2.728 45.6753 2.056C46.4753 1.992 47.2273 1.912 47.9313 1.816C48.6353 1.72 49.3393 1.624 50.0433 1.528C50.7473 1.4 51.4513 1.288 52.1553 1.192C52.8913 1.064 53.6913 0.919997 54.5553 0.759997C54.2353 2.616 53.9313 4.52 53.6433 6.472C53.3553 8.424 53.0993 10.376 52.8753 12.328C52.6513 14.248 52.4273 16.152 52.2033 18.04C52.0113 19.928 51.8353 21.72 51.6753 23.416C51.2913 27.384 50.9553 31.256 50.6673 35.032L42.3153 36.52C42.3153 36.36 42.3313 35.928 42.3633 35.224C42.4273 34.52 42.4913 33.656 42.5553 32.632C42.6513 31.608 42.7633 30.472 42.8913 29.224C43.0513 27.976 43.1953 26.728 43.3233 25.48C43.4833 24.232 43.6433 23.032 43.8033 21.88C43.9633 20.696 44.1233 19.688 44.2833 18.856H43.8513C43.4033 20.2 42.9073 21.624 42.3633 23.128C41.8193 24.6 41.2593 26.104 40.6833 27.64C40.1393 29.176 39.5953 30.68 39.0513 32.152C38.5073 33.624 38.0273 35.032 37.6113 36.376C36.4913 36.408 35.5313 36.456 34.7313 36.52C33.9313 36.552 33.0033 36.6 31.9473 36.664L33.4833 18.856H32.7633C32.6993 19.272 32.5393 19.976 32.2833 20.968C32.0273 21.928 31.7233 23.048 31.3713 24.328C31.0513 25.576 30.6993 26.888 30.3153 28.264C29.9313 29.608 29.5633 30.872 29.2113 32.056C28.8913 33.208 28.6193 34.168 28.3953 34.936C28.1713 35.672 28.0433 36.088 28.0113 36.184L20.0912 36.712ZM71.218 27.64C70.77 29.464 70.13 31.016 69.298 32.296C68.498 33.576 67.538 34.632 66.418 35.464C65.33 36.296 64.162 36.904 62.914 37.288C61.666 37.672 60.418 37.864 59.17 37.864C58.434 37.864 57.682 37.736 56.914 37.48C56.146 37.256 55.458 36.904 54.85 36.424C54.242 35.944 53.73 35.336 53.314 34.6C52.93 33.864 52.738 33 52.738 32.008C52.738 31.88 52.738 31.752 52.738 31.624C52.738 31.496 52.754 31.368 52.786 31.24C52.914 29.928 53.122 28.344 53.41 26.488C53.698 24.632 54.002 22.696 54.322 20.68C54.642 18.664 54.994 16.648 55.378 14.632C55.762 12.584 56.098 10.728 56.386 9.064C56.706 7.4 56.978 6.024 57.202 4.936C57.426 3.816 57.57 3.128 57.634 2.872C58.306 2.808 59.106 2.728 60.034 2.632C60.962 2.536 61.826 2.456 62.626 2.392C63.618 2.296 64.594 2.2 65.554 2.104C64.722 5.976 63.986 9.48 63.346 12.616C63.058 13.96 62.77 15.304 62.482 16.648C62.226 17.992 61.97 19.224 61.714 20.344C61.49 21.464 61.282 22.44 61.09 23.272C60.93 24.072 60.786 24.728 60.658 25.24C60.562 25.752 60.434 26.408 60.274 27.208C60.146 27.976 60.082 28.68 60.082 29.32C60.082 29.832 60.21 30.264 60.466 30.616C60.722 30.936 61.042 31.096 61.426 31.096C61.97 31.096 62.418 30.888 62.77 30.472C63.122 30.024 63.41 29.496 63.634 28.888C63.89 28.28 64.066 27.672 64.162 27.064C64.29 26.424 64.402 25.928 64.498 25.576C64.69 24.648 64.898 23.624 65.122 22.504C65.378 21.352 65.618 20.168 65.842 18.952C66.098 17.704 66.338 16.44 66.562 15.16C66.818 13.88 67.058 12.632 67.282 11.416C67.826 8.6 68.354 5.688 68.866 2.68L76.162 2.2C76.162 2.2 76.082 2.616 75.922 3.448C75.762 4.28 75.554 5.384 75.298 6.76C75.042 8.136 74.754 9.704 74.434 11.464C74.146 13.224 73.81 15.064 73.426 16.984C73.042 18.872 72.658 20.744 72.274 22.6C71.922 24.424 71.57 26.104 71.218 27.64ZM71.5994 37.24C72.5594 32.632 73.4714 28.168 74.3354 23.848C74.6554 21.992 74.9914 20.072 75.3434 18.088C75.7274 16.104 76.0794 14.152 76.3994 12.232C76.7194 10.28 77.0074 8.424 77.2634 6.664C77.5194 4.872 77.7114 3.256 77.8394 1.816C78.2554 1.848 78.6074 1.864 78.8954 1.864C79.1834 1.864 79.5194 1.864 79.9034 1.864C80.3514 1.864 80.8954 1.864 81.5354 1.864C82.1754 1.832 82.8154 1.8 83.4554 1.768C84.0954 1.736 84.7834 1.704 85.5194 1.672C85.9674 3.912 86.3674 6.072 86.7194 8.152C87.0714 9.976 87.4234 11.848 87.7754 13.768C88.1594 15.688 88.4954 17.32 88.7834 18.664C88.9114 18.024 89.0554 17.288 89.2154 16.456C89.3754 15.592 89.5514 14.696 89.7434 13.768C89.9354 12.84 90.1114 11.912 90.2714 10.984C90.4634 10.024 90.6554 9.08 90.8474 8.152C91.2954 6.072 91.7594 3.928 92.2394 1.72L98.0954 0.999997C97.0074 5.896 96.0474 10.536 95.2154 14.92C94.8314 16.808 94.4474 18.728 94.0634 20.68C93.7114 22.6 93.3754 24.456 93.0554 26.248C92.7354 28.008 92.4634 29.656 92.2394 31.192C92.0154 32.696 91.8394 33.96 91.7114 34.984C91.6154 34.984 91.2314 35.064 90.5594 35.224C89.9194 35.352 89.1674 35.512 88.3034 35.704C87.4714 35.896 86.6234 36.088 85.7594 36.28C84.9274 36.472 84.3034 36.648 83.8874 36.808C83.6954 34.248 83.4874 31.816 83.2634 29.512C83.1674 28.52 83.0554 27.512 82.9274 26.488C82.8314 25.432 82.7194 24.424 82.5914 23.464C82.4634 22.504 82.3354 21.608 82.2074 20.776C82.0794 19.944 81.9514 19.224 81.8234 18.616C81.7274 19.224 81.5994 19.928 81.4394 20.728C81.2794 21.528 81.1194 22.376 80.9594 23.272C80.7994 24.168 80.6394 25.112 80.4794 26.104C80.3194 27.064 80.1434 27.992 79.9514 28.888C79.5354 31.032 79.0874 33.272 78.6074 35.608L71.5994 37.24ZM113.751 35.08C113.463 35.08 112.855 35.096 111.927 35.128C110.999 35.16 109.895 35.208 108.615 35.272C107.367 35.336 106.007 35.416 104.535 35.512C103.063 35.608 101.623 35.72 100.215 35.848C98.8065 35.944 97.4945 36.056 96.2785 36.184C95.0945 36.312 94.1505 36.44 93.4465 36.568L93.4945 29.56L107.127 10.984C106.583 10.984 105.815 11.048 104.823 11.176C103.831 11.272 102.823 11.384 101.799 11.512C100.807 11.64 99.9425 11.768 99.2065 11.896L98.0545 11.992L98.9665 4.456L118.599 3.064L117.351 9.688L104.247 28.312C104.887 28.312 105.735 28.28 106.791 28.216C107.879 28.152 108.999 28.088 110.151 28.024C111.303 27.96 112.551 27.88 113.895 27.784L113.751 35.08ZM123.718 33.16C123.718 33.768 123.574 34.376 123.286 34.984C123.03 35.592 122.646 36.136 122.134 36.616C121.622 37.064 120.982 37.416 120.214 37.672C119.446 37.96 118.566 38.104 117.574 38.104C116.902 38.104 116.294 37.976 115.75 37.72C115.206 37.464 114.758 37.128 114.406 36.712C114.086 36.264 113.83 35.768 113.638 35.224C113.446 34.68 113.35 34.136 113.35 33.592C113.35 32.984 113.446 32.408 113.638 31.864C113.83 31.288 114.118 30.792 114.502 30.376C114.918 29.928 115.414 29.56 115.99 29.272C116.598 28.984 117.318 28.84 118.15 28.84C120.006 28.84 121.398 29.288 122.326 30.184C123.254 31.048 123.718 32.04 123.718 33.16ZM148.198 12.472C148.198 14.136 147.958 15.912 147.478 17.8C146.998 19.656 146.326 21.512 145.462 23.368C144.598 25.192 143.526 26.952 142.246 28.648C140.998 30.312 139.574 31.784 137.974 33.064C136.374 34.312 134.614 35.32 132.694 36.088C130.806 36.856 128.79 37.24 126.646 37.24C126.198 37.24 125.75 37.208 125.302 37.144C124.854 37.112 124.406 37.064 123.958 37C124.822 32.584 125.67 28.28 126.502 24.088C126.822 22.328 127.158 20.504 127.51 18.616C127.862 16.696 128.198 14.808 128.518 12.952C128.838 11.096 129.142 9.32 129.43 7.624C129.75 5.928 130.006 4.392 130.198 3.016C131.574 2.76 132.966 2.52 134.374 2.296C135.782 2.072 137.222 1.96 138.694 1.96C140.422 1.96 141.878 2.232 143.062 2.776C144.278 3.32 145.254 4.072 145.99 5.032C146.758 5.992 147.318 7.112 147.67 8.392C148.022 9.672 148.198 11.032 148.198 12.472ZM136.87 8.728C136.518 10.616 136.15 12.424 135.766 14.152C135.382 15.88 134.998 17.624 134.614 19.384C134.23 21.144 133.846 22.984 133.462 24.904C133.078 26.824 132.71 28.92 132.358 31.192C133.126 30.68 133.862 29.992 134.566 29.128C135.302 28.232 135.99 27.208 136.63 26.056C137.27 24.904 137.846 23.688 138.358 22.408C138.902 21.128 139.366 19.88 139.75 18.664C140.134 17.448 140.422 16.312 140.614 15.256C140.838 14.2 140.95 13.288 140.95 12.52C140.95 11.336 140.614 10.408 139.942 9.736C139.302 9.064 138.278 8.728 136.87 8.728ZM145.337 37.048L151.625 2.92L166.793 1.624C166.569 2.328 166.377 3.048 166.217 3.784C166.057 4.392 165.897 5.032 165.737 5.704C165.609 6.344 165.497 6.92 165.401 7.432C165.081 7.464 164.617 7.496 164.009 7.528C163.433 7.528 162.809 7.544 162.137 7.576C161.465 7.576 160.777 7.576 160.073 7.576C159.401 7.576 158.809 7.576 158.297 7.576L156.617 16.168C157.609 16.104 158.537 16.056 159.401 16.024C160.105 15.992 160.825 15.976 161.561 15.976C162.297 15.976 162.841 15.96 163.193 15.928C163.065 16.824 162.937 17.704 162.809 18.568C162.713 19.432 162.585 20.312 162.425 21.208C162.105 21.24 161.577 21.272 160.841 21.304C160.137 21.304 159.417 21.32 158.681 21.352C157.849 21.384 156.937 21.416 155.945 21.448L154.313 30.28L161.321 29.176L160.841 34.648L145.337 37.048ZM164.145 37.432C164.561 32.952 164.945 28.552 165.297 24.232C165.457 22.44 165.601 20.552 165.729 18.568C165.889 16.584 166.017 14.632 166.113 12.712C166.241 10.76 166.337 8.888 166.401 7.096C166.465 5.272 166.513 3.608 166.545 2.104C167.313 2.104 168.129 2.088 168.993 2.056C169.889 2.024 170.689 1.992 171.393 1.96C172.129 1.928 172.753 1.896 173.265 1.864C173.777 1.8 174.033 1.768 174.033 1.768C173.681 5.48 173.377 8.536 173.121 10.936C172.865 13.304 172.657 15.24 172.497 16.744C172.369 18.216 172.241 19.64 172.113 21.016C172.017 22.392 171.905 23.672 171.777 24.856C171.649 26.04 171.537 27.048 171.441 27.88H172.305L177.681 2.344C178.545 2.312 179.425 2.264 180.321 2.2C181.121 2.136 181.953 2.088 182.817 2.056C183.713 2.024 184.529 1.96 185.265 1.864C184.817 3.272 184.353 4.824 183.873 6.52C183.425 8.216 182.945 9.976 182.433 11.8C181.953 13.624 181.473 15.48 180.993 17.368C180.545 19.256 180.097 21.08 179.649 22.84C178.625 26.968 177.601 31.208 176.577 35.56L164.145 37.432Z" fill="url(#paint0_linear)"/>
<defs>
<linearGradient id="paint0_linear" x1="0.999999" y1="25" x2="186" y2="25" gradientUnits="userSpaceOnUse">
<stop stop-color="#58598C"/>
<stop offset="1" stop-color="#6B62FA"/>
</linearGradient>
</defs>
</svg>
