<svg width="186" height="51" viewBox="0 0 186 51" fill="none" xmlns="http://www.w3.org/2000/svg">
<path d="M22.696 29.952C22.696 31.264 22.424 32.48 21.88 33.6C21.336 34.72 20.6 35.744 19.672 36.672C18.744 37.568 17.656 38.368 16.408 39.072C15.192 39.744 13.896 40.32 12.52 40.8C11.176 41.248 9.784 41.6 8.344 41.856C6.936 42.08 5.576 42.192 4.264 42.192C3.08 42.192 1.976 42.096 0.952 41.904C2.488 36.304 3.704 30.672 4.6 25.008C5.528 19.312 6.408 13.584 7.24 7.824C8.904 7.472 10.632 7.168 12.424 6.912C14.216 6.624 16.072 6.48 17.992 6.48C18.792 6.48 19.64 6.576 20.536 6.768C21.432 6.96 22.248 7.312 22.984 7.824C23.72 8.336 24.328 9.008 24.808 9.84C25.32 10.672 25.576 11.728 25.576 13.008C25.576 14.224 25.368 15.36 24.952 16.416C24.568 17.472 24.056 18.432 23.416 19.296C22.808 20.16 22.104 20.912 21.304 21.552C20.504 22.16 19.688 22.624 18.856 22.944C19.272 23.168 19.704 23.488 20.152 23.904C20.6 24.32 21.016 24.816 21.4 25.392C21.784 25.936 22.088 26.592 22.312 27.36C22.568 28.128 22.696 28.992 22.696 29.952ZM11.704 24.96C11.576 25.728 11.448 26.416 11.32 27.024C11.224 27.6 11.128 28.16 11.032 28.704C10.936 29.248 10.824 29.824 10.696 30.432C10.6 31.008 10.488 31.696 10.36 32.496C10.968 32.432 11.656 32.32 12.424 32.16C13.192 32 13.928 31.76 14.632 31.44C15.336 31.088 15.928 30.64 16.408 30.096C16.888 29.52 17.128 28.832 17.128 28.032C17.128 27.456 16.968 26.976 16.648 26.592C16.36 26.208 15.976 25.888 15.496 25.632C15.048 25.376 14.552 25.2 14.008 25.104C13.464 24.976 12.952 24.912 12.472 24.912C12.312 24.912 12.168 24.912 12.04 24.912C11.944 24.912 11.832 24.928 11.704 24.96ZM13.864 13.344C13.8 13.696 13.72 14.112 13.624 14.592C13.56 15.072 13.48 15.584 13.384 16.128C13.288 16.64 13.176 17.152 13.048 17.664C12.952 18.176 12.872 18.624 12.808 19.008C13.512 18.88 14.216 18.704 14.92 18.48C15.624 18.256 16.248 18.016 16.792 17.76C17.368 17.472 17.816 17.168 18.136 16.848C18.488 16.528 18.664 16.176 18.664 15.792C18.664 15.312 18.52 14.928 18.232 14.64C17.944 14.32 17.56 14.064 17.08 13.872C16.632 13.68 16.152 13.552 15.64 13.488C15.16 13.392 14.728 13.344 14.344 13.344H13.864ZM20.0912 41.712C21.4992 37.456 22.8433 33.28 24.1233 29.184C24.6673 27.456 25.2273 25.648 25.8033 23.76C26.3793 21.872 26.9553 20 27.5312 18.144C28.1073 16.288 28.6353 14.496 29.1153 12.768C29.6273 11.04 30.0753 9.44 30.4593 7.968C32.2193 7.968 33.8833 7.872 35.4513 7.68C37.0193 7.488 38.7153 7.312 40.5393 7.152C40.4433 7.856 40.3313 8.656 40.2033 9.552C40.1073 10.416 39.9793 11.328 39.8193 12.288C39.6913 13.248 39.5473 14.24 39.3873 15.264C39.2273 16.288 39.0353 17.6 38.8113 19.2C38.5873 20.8 38.2833 22.8 37.8993 25.2H38.5233C39.4513 22.768 40.2193 20.752 40.8273 19.152C41.4353 17.52 41.9313 16.192 42.3153 15.168C42.6993 14.144 43.0833 13.152 43.4673 12.192C43.8833 11.2 44.2673 10.272 44.6193 9.408C45.0033 8.512 45.3553 7.728 45.6753 7.056C46.4753 6.992 47.2273 6.912 47.9313 6.816C48.6353 6.72 49.3393 6.624 50.0433 6.528C50.7473 6.4 51.4513 6.288 52.1553 6.192C52.8913 6.064 53.6913 5.92 54.5553 5.76C54.2353 7.616 53.9313 9.52 53.6433 11.472C53.3553 13.424 53.0993 15.376 52.8753 17.328C52.6513 19.248 52.4273 21.152 52.2033 23.04C52.0113 24.928 51.8353 26.72 51.6753 28.416C51.2913 32.384 50.9553 36.256 50.6673 40.032L42.3153 41.52C42.3153 41.36 42.3313 40.928 42.3633 40.224C42.4273 39.52 42.4913 38.656 42.5553 37.632C42.6513 36.608 42.7633 35.472 42.8913 34.224C43.0513 32.976 43.1953 31.728 43.3233 30.48C43.4833 29.232 43.6433 28.032 43.8033 26.88C43.9633 25.696 44.1233 24.688 44.2833 23.856H43.8513C43.4033 25.2 42.9073 26.624 42.3633 28.128C41.8193 29.6 41.2593 31.104 40.6833 32.64C40.1393 34.176 39.5953 35.68 39.0513 37.152C38.5073 38.624 38.0273 40.032 37.6113 41.376C36.4913 41.408 35.5313 41.456 34.7313 41.52C33.9313 41.552 33.0033 41.6 31.9473 41.664L33.4833 23.856H32.7633C32.6993 24.272 32.5393 24.976 32.2833 25.968C32.0273 26.928 31.7233 28.048 31.3713 29.328C31.0513 30.576 30.6993 31.888 30.3153 33.264C29.9313 34.608 29.5633 35.872 29.2113 37.056C28.8913 38.208 28.6193 39.168 28.3953 39.936C28.1713 40.672 28.0433 41.088 28.0113 41.184L20.0912 41.712ZM71.218 32.64C70.77 34.464 70.13 36.016 69.298 37.296C68.498 38.576 67.538 39.632 66.418 40.464C65.33 41.296 64.162 41.904 62.914 42.288C61.666 42.672 60.418 42.864 59.17 42.864C58.434 42.864 57.682 42.736 56.914 42.48C56.146 42.256 55.458 41.904 54.85 41.424C54.242 40.944 53.73 40.336 53.314 39.6C52.93 38.864 52.738 38 52.738 37.008C52.738 36.88 52.738 36.752 52.738 36.624C52.738 36.496 52.754 36.368 52.786 36.24C52.914 34.928 53.122 33.344 53.41 31.488C53.698 29.632 54.002 27.696 54.322 25.68C54.642 23.664 54.994 21.648 55.378 19.632C55.762 17.584 56.098 15.728 56.386 14.064C56.706 12.4 56.978 11.024 57.202 9.936C57.426 8.816 57.57 8.128 57.634 7.872C58.306 7.808 59.106 7.728 60.034 7.632C60.962 7.536 61.826 7.456 62.626 7.392C63.618 7.296 64.594 7.2 65.554 7.104C64.722 10.976 63.986 14.48 63.346 17.616C63.058 18.96 62.77 20.304 62.482 21.648C62.226 22.992 61.97 24.224 61.714 25.344C61.49 26.464 61.282 27.44 61.09 28.272C60.93 29.072 60.786 29.728 60.658 30.24C60.562 30.752 60.434 31.408 60.274 32.208C60.146 32.976 60.082 33.68 60.082 34.32C60.082 34.832 60.21 35.264 60.466 35.616C60.722 35.936 61.042 36.096 61.426 36.096C61.97 36.096 62.418 35.888 62.77 35.472C63.122 35.024 63.41 34.496 63.634 33.888C63.89 33.28 64.066 32.672 64.162 32.064C64.29 31.424 64.402 30.928 64.498 30.576C64.69 29.648 64.898 28.624 65.122 27.504C65.378 26.352 65.618 25.168 65.842 23.952C66.098 22.704 66.338 21.44 66.562 20.16C66.818 18.88 67.058 17.632 67.282 16.416C67.826 13.6 68.354 10.688 68.866 7.68L76.162 7.2C76.162 7.2 76.082 7.616 75.922 8.448C75.762 9.28 75.554 10.384 75.298 11.76C75.042 13.136 74.754 14.704 74.434 16.464C74.146 18.224 73.81 20.064 73.426 21.984C73.042 23.872 72.658 25.744 72.274 27.6C71.922 29.424 71.57 31.104 71.218 32.64ZM71.5994 42.24C72.5594 37.632 73.4714 33.168 74.3354 28.848C74.6554 26.992 74.9914 25.072 75.3434 23.088C75.7274 21.104 76.0794 19.152 76.3994 17.232C76.7194 15.28 77.0074 13.424 77.2634 11.664C77.5194 9.872 77.7114 8.256 77.8394 6.816C78.2554 6.848 78.6074 6.864 78.8954 6.864C79.1834 6.864 79.5194 6.864 79.9034 6.864C80.3514 6.864 80.8954 6.864 81.5354 6.864C82.1754 6.832 82.8154 6.8 83.4554 6.768C84.0954 6.736 84.7834 6.704 85.5194 6.672C85.9674 8.912 86.3674 11.072 86.7194 13.152C87.0714 14.976 87.4234 16.848 87.7754 18.768C88.1594 20.688 88.4954 22.32 88.7834 23.664C88.9114 23.024 89.0554 22.288 89.2154 21.456C89.3754 20.592 89.5514 19.696 89.7434 18.768C89.9354 17.84 90.1114 16.912 90.2714 15.984C90.4634 15.024 90.6554 14.08 90.8474 13.152C91.2954 11.072 91.7594 8.928 92.2394 6.72L98.0954 6C97.0074 10.896 96.0474 15.536 95.2154 19.92C94.8314 21.808 94.4474 23.728 94.0634 25.68C93.7114 27.6 93.3754 29.456 93.0554 31.248C92.7354 33.008 92.4634 34.656 92.2394 36.192C92.0154 37.696 91.8394 38.96 91.7114 39.984C91.6154 39.984 91.2314 40.064 90.5594 40.224C89.9194 40.352 89.1674 40.512 88.3034 40.704C87.4714 40.896 86.6234 41.088 85.7594 41.28C84.9274 41.472 84.3034 41.648 83.8874 41.808C83.6954 39.248 83.4874 36.816 83.2634 34.512C83.1674 33.52 83.0554 32.512 82.9274 31.488C82.8314 30.432 82.7194 29.424 82.5914 28.464C82.4634 27.504 82.3354 26.608 82.2074 25.776C82.0794 24.944 81.9514 24.224 81.8234 23.616C81.7274 24.224 81.5994 24.928 81.4394 25.728C81.2794 26.528 81.1194 27.376 80.9594 28.272C80.7994 29.168 80.6394 30.112 80.4794 31.104C80.3194 32.064 80.1434 32.992 79.9514 33.888C79.5354 36.032 79.0874 38.272 78.6074 40.608L71.5994 42.24ZM113.751 40.08C113.463 40.08 112.855 40.096 111.927 40.128C110.999 40.16 109.895 40.208 108.615 40.272C107.367 40.336 106.007 40.416 104.535 40.512C103.063 40.608 101.623 40.72 100.215 40.848C98.8065 40.944 97.4945 41.056 96.2785 41.184C95.0945 41.312 94.1505 41.44 93.4465 41.568L93.4945 34.56L107.127 15.984C106.583 15.984 105.815 16.048 104.823 16.176C103.831 16.272 102.823 16.384 101.799 16.512C100.807 16.64 99.9425 16.768 99.2065 16.896L98.0545 16.992L98.9665 9.456L118.599 8.064L117.351 14.688L104.247 33.312C104.887 33.312 105.735 33.28 106.791 33.216C107.879 33.152 108.999 33.088 110.151 33.024C111.303 32.96 112.551 32.88 113.895 32.784L113.751 40.08ZM123.718 38.16C123.718 38.768 123.574 39.376 123.286 39.984C123.03 40.592 122.646 41.136 122.134 41.616C121.622 42.064 120.982 42.416 120.214 42.672C119.446 42.96 118.566 43.104 117.574 43.104C116.902 43.104 116.294 42.976 115.75 42.72C115.206 42.464 114.758 42.128 114.406 41.712C114.086 41.264 113.83 40.768 113.638 40.224C113.446 39.68 113.35 39.136 113.35 38.592C113.35 37.984 113.446 37.408 113.638 36.864C113.83 36.288 114.118 35.792 114.502 35.376C114.918 34.928 115.414 34.56 115.99 34.272C116.598 33.984 117.318 33.84 118.15 33.84C120.006 33.84 121.398 34.288 122.326 35.184C123.254 36.048 123.718 37.04 123.718 38.16ZM148.198 17.472C148.198 19.136 147.958 20.912 147.478 22.8C146.998 24.656 146.326 26.512 145.462 28.368C144.598 30.192 143.526 31.952 142.246 33.648C140.998 35.312 139.574 36.784 137.974 38.064C136.374 39.312 134.614 40.32 132.694 41.088C130.806 41.856 128.79 42.24 126.646 42.24C126.198 42.24 125.75 42.208 125.302 42.144C124.854 42.112 124.406 42.064 123.958 42C124.822 37.584 125.67 33.28 126.502 29.088C126.822 27.328 127.158 25.504 127.51 23.616C127.862 21.696 128.198 19.808 128.518 17.952C128.838 16.096 129.142 14.32 129.43 12.624C129.75 10.928 130.006 9.392 130.198 8.016C131.574 7.76 132.966 7.52 134.374 7.296C135.782 7.072 137.222 6.96 138.694 6.96C140.422 6.96 141.878 7.232 143.062 7.776C144.278 8.32 145.254 9.072 145.99 10.032C146.758 10.992 147.318 12.112 147.67 13.392C148.022 14.672 148.198 16.032 148.198 17.472ZM136.87 13.728C136.518 15.616 136.15 17.424 135.766 19.152C135.382 20.88 134.998 22.624 134.614 24.384C134.23 26.144 133.846 27.984 133.462 29.904C133.078 31.824 132.71 33.92 132.358 36.192C133.126 35.68 133.862 34.992 134.566 34.128C135.302 33.232 135.99 32.208 136.63 31.056C137.27 29.904 137.846 28.688 138.358 27.408C138.902 26.128 139.366 24.88 139.75 23.664C140.134 22.448 140.422 21.312 140.614 20.256C140.838 19.2 140.95 18.288 140.95 17.52C140.95 16.336 140.614 15.408 139.942 14.736C139.302 14.064 138.278 13.728 136.87 13.728ZM145.337 42.048L151.625 7.92L166.793 6.624C166.569 7.328 166.377 8.048 166.217 8.784C166.057 9.392 165.897 10.032 165.737 10.704C165.609 11.344 165.497 11.92 165.401 12.432C165.081 12.464 164.617 12.496 164.009 12.528C163.433 12.528 162.809 12.544 162.137 12.576C161.465 12.576 160.777 12.576 160.073 12.576C159.401 12.576 158.809 12.576 158.297 12.576L156.617 21.168C157.609 21.104 158.537 21.056 159.401 21.024C160.105 20.992 160.825 20.976 161.561 20.976C162.297 20.976 162.841 20.96 163.193 20.928C163.065 21.824 162.937 22.704 162.809 23.568C162.713 24.432 162.585 25.312 162.425 26.208C162.105 26.24 161.577 26.272 160.841 26.304C160.137 26.304 159.417 26.32 158.681 26.352C157.849 26.384 156.937 26.416 155.945 26.448L154.313 35.28L161.321 34.176L160.841 39.648L145.337 42.048ZM164.145 42.432C164.561 37.952 164.945 33.552 165.297 29.232C165.457 27.44 165.601 25.552 165.729 23.568C165.889 21.584 166.017 19.632 166.113 17.712C166.241 15.76 166.337 13.888 166.401 12.096C166.465 10.272 166.513 8.608 166.545 7.104C167.313 7.104 168.129 7.088 168.993 7.056C169.889 7.024 170.689 6.992 171.393 6.96C172.129 6.928 172.753 6.896 173.265 6.864C173.777 6.8 174.033 6.768 174.033 6.768C173.681 10.48 173.377 13.536 173.121 15.936C172.865 18.304 172.657 20.24 172.497 21.744C172.369 23.216 172.241 24.64 172.113 26.016C172.017 27.392 171.905 28.672 171.777 29.856C171.649 31.04 171.537 32.048 171.441 32.88H172.305L177.681 7.344C178.545 7.312 179.425 7.264 180.321 7.2C181.121 7.136 181.953 7.088 182.817 7.056C183.713 7.024 184.529 6.96 185.265 6.864C184.817 8.272 184.353 9.824 183.873 11.52C183.425 13.216 182.945 14.976 182.433 16.8C181.953 18.624 181.473 20.48 180.993 22.368C180.545 24.256 180.097 26.08 179.649 27.84C178.625 31.968 177.601 36.208 176.577 40.56L164.145 42.432Z" fill="url(#paint0_linear)"/>
<defs>
<linearGradient id="paint0_linear" x1="0.999999" y1="25.9322" x2="163.328" y2="25.9322" gradientUnits="userSpaceOnUse">
<stop stop-color="#58598C"/>
<stop offset="1" stop-color="#6B62FA"/>
</linearGradient>
</defs>
</svg>
